<svg width="64" height="64" viewBox="0 0 64 64" fill="none" xmlns="http://www.w3.org/2000/svg">
<circle cx="32" cy="32" r="31.5" stroke="black" stroke-opacity="0.1"/>
<path d="M26.4433 0.486152C18.9687 1.80413 12.2059 5.73598 7.36246 11.5796C2.51906 17.4233 -0.0895834 24.7982 0.00234739 32.3876C0.0942782 39.9769 2.88079 47.2865 7.86432 53.0112C12.8478 58.7358 19.7039 62.5027 27.2082 63.6392L27.352 62.69C20.0728 61.5876 13.4224 57.9337 8.58839 52.3808C3.75437 46.828 1.05145 39.7376 0.962276 32.376C0.873103 25.0143 3.40348 17.8606 8.10158 12.1922C12.7997 6.5239 19.3596 2.71 26.61 1.43157L26.4433 0.486152Z" fill="#FFB21E"/>
<path d="M38.25 47C39.6307 47 40.75 45.8807 40.75 44.5C40.75 43.1193 39.6307 42 38.25 42C36.8693 42 35.75 43.1193 35.75 44.5C35.75 45.8807 36.8693 47 38.25 47Z" fill="#FFB21E"/>
<path d="M38.25 22C39.6307 22 40.75 20.8807 40.75 19.5C40.75 18.1193 39.6307 17 38.25 17C36.8693 17 35.75 18.1193 35.75 19.5C35.75 20.8807 36.8693 22 38.25 22Z" fill="#FFB21E"/>
<path d="M17 34.5C18.3807 34.5 19.5 33.3807 19.5 32C19.5 30.6193 18.3807 29.5 17 29.5C15.6193 29.5 14.5 30.6193 14.5 32C14.5 33.3807 15.6193 34.5 17 34.5Z" fill="#FFB21E"/>
<path d="M47 27C45.8945 27.0033 44.8214 27.3732 43.9487 28.0518C43.076 28.7305 42.453 29.6794 42.1775 30.75H36.8225C36.6455 30.0451 36.3156 29.3877 35.8562 28.8244C35.3969 28.2611 34.8193 27.8058 34.1644 27.4905C33.5095 27.1753 32.7933 27.0079 32.0665 27.0003C31.3397 26.9926 30.6202 27.1449 29.9588 27.4463L25.9875 22.4838C26.6407 21.6259 26.9962 20.5783 27 19.5C27 18.5111 26.7068 17.5444 26.1574 16.7222C25.6079 15.8999 24.8271 15.259 23.9134 14.8806C22.9998 14.5022 21.9945 14.4031 21.0246 14.5961C20.0546 14.789 19.1637 15.2652 18.4645 15.9645C17.7652 16.6637 17.289 17.5546 17.0961 18.5246C16.9031 19.4945 17.0022 20.4998 17.3806 21.4134C17.759 22.3271 18.3999 23.1079 19.2222 23.6574C20.0444 24.2068 21.0111 24.5 22 24.5C22.7048 24.4984 23.4012 24.3462 24.0425 24.0538L28.0125 29.0163C27.3563 29.8725 27.0006 30.9212 27.0006 32C27.0006 33.0788 27.3563 34.1275 28.0125 34.9838L24.0425 39.9463C23.4012 39.6538 22.7048 39.5016 22 39.5C21.0111 39.5 20.0444 39.7933 19.2222 40.3427C18.3999 40.8921 17.759 41.673 17.3806 42.5866C17.0022 43.5002 16.9031 44.5056 17.0961 45.4755C17.289 46.4454 17.7652 47.3363 18.4645 48.0355C19.1637 48.7348 20.0546 49.211 21.0246 49.4039C21.9945 49.5969 22.9998 49.4978 23.9134 49.1194C24.8271 48.741 25.6079 48.1001 26.1574 47.2779C26.7068 46.4556 27 45.4889 27 44.5C26.9963 43.4217 26.6408 42.3741 25.9875 41.5163L29.9575 36.5538C30.619 36.8553 31.3387 37.0078 32.0656 37.0002C32.7925 36.9927 33.5089 36.8254 34.164 36.5101C34.819 36.1949 35.3967 35.7394 35.8562 35.176C36.3156 34.6126 36.6455 33.9551 36.8225 33.25H42.1775C42.4129 34.1532 42.8968 34.9723 43.5743 35.6143C44.2518 36.2563 45.0958 36.6954 46.0103 36.8819C46.9249 37.0683 47.8734 36.9946 48.7482 36.6691C49.6229 36.3436 50.3889 35.7793 50.9591 35.0403C51.5293 34.3014 51.8808 33.4173 51.9738 32.4886C52.0668 31.5599 51.8976 30.6237 51.4853 29.7864C51.0729 28.949 50.4341 28.244 49.6413 27.7515C48.8484 27.259 47.9334 26.9986 47 27V27ZM19.5 19.5C19.5 19.0055 19.6466 18.5222 19.9213 18.1111C20.196 17.7 20.5865 17.3795 21.0433 17.1903C21.5001 17.0011 22.0028 16.9516 22.4877 17.048C22.9727 17.1445 23.4181 17.3826 23.7678 17.7322C24.1174 18.0819 24.3555 18.5273 24.452 19.0123C24.5484 19.4972 24.4989 19.9999 24.3097 20.4567C24.1205 20.9135 23.8001 21.304 23.3889 21.5787C22.9778 21.8534 22.4945 22 22 22C21.3372 21.9993 20.7017 21.7357 20.233 21.267C19.7643 20.7983 19.5007 20.1628 19.5 19.5V19.5ZM22 47C21.5055 47 21.0222 46.8534 20.6111 46.5787C20.2 46.304 19.8795 45.9135 19.6903 45.4567C19.5011 44.9999 19.4516 44.4972 19.548 44.0123C19.6445 43.5273 19.8826 43.0819 20.2322 42.7322C20.5819 42.3826 21.0273 42.1445 21.5123 42.048C21.9972 41.9516 22.4999 42.0011 22.9567 42.1903C23.4135 42.3795 23.804 42.7 24.0787 43.1111C24.3534 43.5222 24.5 44.0056 24.5 44.5C24.4993 45.1628 24.2357 45.7983 23.767 46.267C23.2983 46.7357 22.6628 46.9993 22 47ZM32 34.5C31.5055 34.5 31.0222 34.3534 30.6111 34.0787C30.2 33.804 29.8795 33.4135 29.6903 32.9567C29.5011 32.4999 29.4516 31.9972 29.548 31.5123C29.6445 31.0273 29.8826 30.5819 30.2322 30.2322C30.5819 29.8826 31.0273 29.6445 31.5123 29.548C31.9972 29.4516 32.4999 29.5011 32.9567 29.6903C33.4135 29.8795 33.804 30.2 34.0787 30.6111C34.3534 31.0222 34.5 31.5056 34.5 32C34.4993 32.6628 34.2357 33.2983 33.767 33.767C33.2983 34.2357 32.6628 34.4993 32 34.5V34.5ZM47 34.5C46.5055 34.5 46.0222 34.3534 45.6111 34.0787C45.2 33.804 44.8795 33.4135 44.6903 32.9567C44.5011 32.4999 44.4516 31.9972 44.548 31.5123C44.6445 31.0273 44.8826 30.5819 45.2322 30.2322C45.5819 29.8826 46.0273 29.6445 46.5123 29.548C46.9972 29.4516 47.4999 29.5011 47.9567 29.6903C48.4135 29.8795 48.804 30.2 49.0787 30.6111C49.3534 31.0222 49.5 31.5056 49.5 32C49.4993 32.6628 49.2357 33.2983 48.767 33.767C48.2983 34.2357 47.6628 34.4993 47 34.5V34.5Z" fill="#FFB21E"/>
</svg>
