<svg width="64" height="64" viewBox="0 0 64 64" fill="none" xmlns="http://www.w3.org/2000/svg">
<g clip-path="url(#clip0_1_1469)">
<path d="M32.9499 16.6876L32 13.7992L31.0501 16.6876L27.4955 27.4955L16.6876 31.0501L13.7992 32L16.6876 32.9499L27.4955 36.5045L31.0501 47.3124L32 50.2008L32.9499 47.3124L36.5045 36.5045L47.3124 32.9499L50.2008 32L47.3124 31.0501L36.5045 27.4955L32.9499 16.6876Z" stroke="#1254FF" stroke-width="2" stroke-linecap="round"/>
</g>
<circle cx="32" cy="32" r="31.5" stroke="black" stroke-opacity="0.1"/>
<path d="M56.5134 52.5692C59.5227 48.9829 61.7084 44.7799 62.9164 40.2569C64.1244 35.7338 64.3252 31.0007 63.5047 26.3916C62.6842 21.7824 60.8623 17.4094 58.1676 13.5811C55.4729 9.75278 51.971 6.56234 47.909 4.23484L47.4317 5.0678C51.3719 7.32547 54.7687 10.4202 57.3826 14.1337C59.9964 17.8472 61.7637 22.0889 62.5596 26.5598C63.3555 31.0307 63.1607 35.6218 61.9889 40.0091C60.8172 44.3965 58.697 48.4734 55.778 51.9521L56.5134 52.5692Z" fill="#1254FF"/>
<defs>
<clipPath id="clip0_1_1469">
<rect width="40" height="40" fill="white" transform="translate(12 12)"/>
</clipPath>
</defs>
</svg>
