<svg width="166" height="43" viewBox="0 0 166 43" fill="none" xmlns="http://www.w3.org/2000/svg">
<path d="M20.84 42.504V29.112C19.944 30.392 18.776 31.432 17.336 32.232C15.928 33 14.232 33.384 12.248 33.384C9.912 33.384 7.864 32.84 6.104 31.752C4.376 30.632 3.032 29.128 2.072 27.24C1.112 25.352 0.632 23.272 0.632 21C0.632 18.696 1.112 16.616 2.072 14.76C3.032 12.872 4.376 11.384 6.104 10.296C7.864 9.176 9.912 8.616 12.248 8.616C14.232 8.616 15.928 9 17.336 9.768C18.776 10.504 19.944 11.528 20.84 12.84V9H24.44V42.504H20.84ZM12.728 30.12C14.52 30.12 16.024 29.704 17.24 28.872C18.488 28.04 19.432 26.936 20.072 25.56C20.712 24.152 21.032 22.632 21.032 21C21.032 19.336 20.712 17.816 20.072 16.44C19.432 15.064 18.488 13.96 17.24 13.128C16.024 12.296 14.52 11.88 12.728 11.88C10.968 11.88 9.448 12.296 8.168 13.128C6.888 13.96 5.912 15.064 5.24 16.44C4.568 17.816 4.232 19.336 4.232 21C4.232 22.632 4.568 24.152 5.24 25.56C5.912 26.936 6.888 28.04 8.168 28.872C9.448 29.704 10.968 30.12 12.728 30.12ZM42.8109 33.384C39.6749 33.384 37.1309 32.968 35.1789 32.136C33.2269 31.272 31.7549 30.088 30.7629 28.584C29.8029 27.08 29.2429 25.384 29.0829 23.496H32.8269C32.9229 25.032 33.4349 26.28 34.3629 27.24C35.2909 28.168 36.5069 28.856 38.0109 29.304C39.5469 29.752 41.2269 29.976 43.0509 29.976C45.7389 29.976 47.8669 29.512 49.4349 28.584C51.0029 27.624 51.7869 26.216 51.7869 24.36C51.7869 23.24 51.3869 22.344 50.5869 21.672C49.8189 20.968 48.7789 20.392 47.4669 19.944C46.1869 19.496 44.7789 19.096 43.2429 18.744C41.7069 18.36 40.1549 17.96 38.5869 17.544C37.0509 17.128 35.6269 16.6 34.3149 15.96C33.0349 15.32 31.9949 14.504 31.1949 13.512C30.4269 12.488 30.0429 11.192 30.0429 9.624C30.0429 7.032 31.0349 4.92 33.0189 3.288C35.0349 1.656 38.0269 0.839999 41.9949 0.839999C44.8109 0.839999 47.1309 1.272 48.9549 2.136C50.7789 2.968 52.1389 4.072 53.0349 5.448C53.9629 6.824 54.4749 8.312 54.5709 9.912H50.8749C50.6829 8.312 49.8829 6.968 48.4749 5.88C47.0669 4.76 44.9069 4.2 41.9949 4.2C40.2029 4.2 38.7469 4.376 37.6269 4.728C36.5069 5.08 35.6429 5.544 35.0349 6.12C34.4589 6.664 34.0589 7.24 33.8349 7.848C33.6429 8.456 33.5469 9.032 33.5469 9.576C33.5469 10.632 33.9309 11.496 34.6989 12.168C35.4989 12.808 36.5389 13.352 37.8189 13.8C39.1309 14.216 40.5709 14.6 42.1389 14.952C43.7069 15.304 45.2589 15.704 46.7949 16.152C48.3629 16.568 49.7869 17.112 51.0669 17.784C52.3789 18.424 53.4189 19.256 54.1869 20.28C54.9869 21.304 55.3869 22.616 55.3869 24.216C55.3869 27.16 54.2669 29.432 52.0269 31.032C49.7869 32.6 46.7149 33.384 42.8109 33.384ZM60.1981 42.504V9H63.7981V12.84C64.6941 11.528 65.8461 10.504 67.2541 9.768C68.6941 9 70.4061 8.616 72.3901 8.616C74.7261 8.616 76.7581 9.176 78.4861 10.296C80.2461 11.384 81.6061 12.872 82.5661 14.76C83.5261 16.616 84.0061 18.696 84.0061 21C84.0061 23.272 83.5261 25.352 82.5661 27.24C81.6061 29.128 80.2461 30.632 78.4861 31.752C76.7581 32.84 74.7261 33.384 72.3901 33.384C70.4061 33.384 68.6941 33 67.2541 32.232C65.8461 31.432 64.6941 30.392 63.7981 29.112V42.504H60.1981ZM71.9101 30.12C73.7021 30.12 75.2221 29.704 76.4701 28.872C77.7501 28.04 78.7261 26.936 79.3981 25.56C80.0701 24.152 80.4061 22.632 80.4061 21C80.4061 19.336 80.0701 17.816 79.3981 16.44C78.7261 15.064 77.7501 13.96 76.4701 13.128C75.2221 12.296 73.7021 11.88 71.9101 11.88C70.1501 11.88 68.6461 12.296 67.3981 13.128C66.1501 13.96 65.2061 15.064 64.5661 16.44C63.9261 17.816 63.6061 19.336 63.6061 21C63.6061 22.632 63.9261 24.152 64.5661 25.56C65.2061 26.936 66.1501 28.04 67.3981 28.872C68.6461 29.704 70.1501 30.12 71.9101 30.12ZM98.873 33.384C96.537 33.384 94.489 32.84 92.729 31.752C91.001 30.632 89.657 29.128 88.697 27.24C87.737 25.352 87.257 23.272 87.257 21C87.257 18.696 87.737 16.616 88.697 14.76C89.657 12.872 91.001 11.384 92.729 10.296C94.489 9.176 96.537 8.616 98.873 8.616C100.857 8.616 102.553 9 103.961 9.768C105.401 10.536 106.569 11.576 107.465 12.888V9H111.065V33H107.465V29.16C106.569 30.44 105.401 31.464 103.961 32.232C102.553 33 100.857 33.384 98.873 33.384ZM99.353 30.12C101.145 30.12 102.649 29.704 103.865 28.872C105.113 28.04 106.057 26.936 106.697 25.56C107.337 24.152 107.657 22.632 107.657 21C107.657 19.336 107.337 17.816 106.697 16.44C106.057 15.064 105.113 13.96 103.865 13.128C102.649 12.296 101.145 11.88 99.353 11.88C97.593 11.88 96.073 12.296 94.793 13.128C93.513 13.96 92.537 15.064 91.865 16.44C91.193 17.816 90.857 19.336 90.857 21C90.857 22.632 91.193 24.152 91.865 25.56C92.537 26.936 93.513 28.04 94.793 28.872C96.073 29.704 97.593 30.12 99.353 30.12ZM127.612 33.384C125.212 33.384 123.132 32.84 121.372 31.752C119.612 30.632 118.236 29.128 117.244 27.24C116.284 25.352 115.804 23.272 115.804 21C115.804 18.696 116.284 16.616 117.244 14.76C118.236 12.872 119.612 11.384 121.372 10.296C123.132 9.176 125.212 8.616 127.612 8.616C130.46 8.616 132.876 9.352 134.86 10.824C136.876 12.296 138.236 14.2 138.94 16.536H135.052C134.508 15.16 133.628 14.04 132.412 13.176C131.228 12.312 129.788 11.88 128.092 11.88C126.332 11.88 124.796 12.296 123.484 13.128C122.172 13.96 121.164 15.064 120.46 16.44C119.756 17.816 119.404 19.336 119.404 21C119.404 22.632 119.756 24.152 120.46 25.56C121.164 26.936 122.172 28.04 123.484 28.872C124.796 29.704 126.332 30.12 128.092 30.12C129.788 30.12 131.228 29.688 132.412 28.824C133.628 27.96 134.508 26.84 135.052 25.464H138.94C138.236 27.8 136.876 29.704 134.86 31.176C132.876 32.648 130.46 33.384 127.612 33.384ZM154.057 33.384C151.625 33.384 149.497 32.84 147.673 31.752C145.849 30.632 144.425 29.128 143.401 27.24C142.409 25.352 141.913 23.272 141.913 21C141.913 18.696 142.393 16.616 143.353 14.76C144.313 12.872 145.689 11.384 147.481 10.296C149.273 9.176 151.385 8.616 153.817 8.616C156.281 8.616 158.393 9.176 160.153 10.296C161.945 11.384 163.321 12.872 164.281 14.76C165.241 16.616 165.721 18.696 165.721 21V22.44H145.609C145.801 23.848 146.249 25.144 146.953 26.328C147.689 27.48 148.665 28.408 149.881 29.112C151.097 29.784 152.505 30.12 154.105 30.12C155.801 30.12 157.225 29.752 158.377 29.016C159.529 28.248 160.425 27.272 161.065 26.088H165.001C164.169 28.232 162.841 29.992 161.017 31.368C159.225 32.712 156.905 33.384 154.057 33.384ZM145.657 19.08H161.977C161.657 17.032 160.793 15.32 159.385 13.944C157.977 12.568 156.121 11.88 153.817 11.88C151.513 11.88 149.657 12.568 148.249 13.944C146.873 15.32 146.009 17.032 145.657 19.08Z" fill="black"/>
</svg>
